{
	"meshes": [
		{
			"name": "Plane.2",
			"primitives": [
				{
					"attributes": {
						"POSITION": 1,
						"NORMAL": 2,
						"TEXCOORD_0": 3
					},
					"indices": 0
				}
			]
		}
	],
	"asset": {
		"version": "2.0",
		"generator": "Maxon Cinema 4D 2026.3.0 (#200000219)"
	},
	"scenes": [
		{
			"nodes": [
				0
			]
		}
	],
	"nodes": [
		{
			"name": "Plane.2",
			"scale": [
				1.0,
				1.0,
				1.0
			],
			"mesh": 0,
			"translation": [
				0.8438892364501953,
				0.41824576258659365,
				0.7655996084213257
			],
			"rotation": [
				0.0,
				0.0,
				0.0,
				-1.0
			]
		}
	],
	"accessors": [
		{
			"bufferView": 0,
			"type": "SCALAR",
			"componentType": 5123,
			"count": 858,
			"byteOffset": 0,
			"min": [
				0
			],
			"max": [
				397
			]
		},
		{
			"bufferView": 1,
			"type": "VEC3",
			"componentType": 5126,
			"count": 398,
			"byteOffset": 0,
			"min": [
				-1.5966036319732667,
				-0.4189194440841675,
				-0.9675261974334717
			],
			"max": [
				0.8733354806900024,
				0.29175424575805666,
				0.766471803188324
			]
		},
		{
			"bufferView": 1,
			"type": "VEC3",
			"componentType": 5126,
			"count": 398,
			"byteOffset": 12,
			"min": [
				-1.0,
				-1.0,
				-1.0
			],
			"max": [
				1.0,
				1.0,
				1.0
			]
		},
		{
			"bufferView": 1,
			"type": "VEC2",
			"componentType": 5126,
			"count": 398,
			"byteOffset": 24,
			"min": [
				0.0,
				0.0
			],
			"max": [
				1.0,
				1.0
			]
		}
	],
	"bufferViews": [
		{
			"buffer": 0,
			"byteOffset": 0,
			"byteLength": 1716,
			"target": 34963
		},
		{
			"buffer": 0,
			"byteOffset": 1716,
			"byteLength": 12736,
			"target": 34962,
			"byteStride": 32
		}
	],
	"buffers": [
		{
			"uri": "data:application/octet-stream;base64,",
			"byteLength": 14452
		}
	]
}