{
	"asset": {
		"version": "2.0",
		"generator": "Blender Foundation Blender (stable FBX IO) 2.90.1"
	},
	"scenes": [
		{
			"nodes": [
				0,
				1
			]
		}
	],
	"nodes": [
		{
			"name": "Taza",
			"mesh": 0,
			"translation": [
				0.0,
				0.0,
				0.0
			],
			"rotation": [
				0.7071067690849304,
				0.0,
				0.0,
				-0.7071067690849304
			],
			"scale": [
				1.0,
				1.0,
				1.0
			]
		},
		{
			"name": "Estampa",
			"mesh": 1,
			"translation": [
				0.0,
				0.0,
				0.0
			],
			"rotation": [
				0.7071067690849304,
				0.0,
				0.0,
				-0.7071067690849304
			],
			"scale": [
				1.0,
				1.0,
				1.0
			]
		}
	],
	"meshes": [
		{
			"name": "Taza",
			"primitives": [
				{
					"attributes": {
						"POSITION": 1,
						"NORMAL": 2,
						"TEXCOORD_0": 3
					},
					"indices": 0,
					"material": 0
				}
			]
		},
		{
			"name": "Estampa",
			"primitives": [
				{
					"attributes": {
						"POSITION": 5,
						"NORMAL": 6,
						"TEXCOORD_0": 7
					},
					"indices": 4,
					"material": 1
				}
			]
		}
	],
	"accessors": [
		{
			"count": 26820,
			"bufferView": 0,
			"type": "SCALAR",
			"componentType": 5123,
			"byteOffset": 0,
			"min": [
				0
			],
			"max": [
				4553
			]
		},
		{
			"count": 4554,
			"bufferView": 1,
			"type": "VEC3",
			"componentType": 5126,
			"byteOffset": 0,
			"min": [
				-0.009745638817548752,
				-0.009745638817548752,
				0.0
			],
			"max": [
				0.01844969391822815,
				0.009745638817548752,
				0.021971439942717553
			]
		},
		{
			"count": 4554,
			"bufferView": 1,
			"type": "VEC3",
			"componentType": 5126,
			"byteOffset": 12,
			"min": [
				-1.0,
				-1.0,
				-1.0
			],
			"max": [
				1.0,
				1.0,
				1.0
			]
		},
		{
			"count": 4554,
			"bufferView": 1,
			"type": "VEC2",
			"componentType": 5126,
			"byteOffset": 24,
			"min": [
				0.0,
				1.0
			],
			"max": [
				0.0,
				1.0
			]
		},
		{
			"count": 10044,
			"bufferView": 2,
			"type": "SCALAR",
			"componentType": 5123,
			"byteOffset": 0,
			"min": [
				0
			],
			"max": [
				1759
			]
		},
		{
			"count": 1760,
			"bufferView": 3,
			"type": "VEC3",
			"componentType": 5126,
			"byteOffset": 0,
			"min": [
				-0.009745638817548752,
				-0.009745638817548752,
				0.0020191294606775047
			],
			"max": [
				0.008596750907599926,
				0.009745638817548752,
				0.019955342635512353
			]
		},
		{
			"count": 1760,
			"bufferView": 3,
			"type": "VEC3",
			"componentType": 5126,
			"byteOffset": 12,
			"min": [
				-1.0,
				-1.0,
				-0.002531345933675766
			],
			"max": [
				0.8579172492027283,
				1.0,
				0.002531345933675766
			]
		},
		{
			"count": 1760,
			"bufferView": 3,
			"type": "VEC2",
			"componentType": 5126,
			"byteOffset": 24,
			"min": [
				0.01898219808936119,
				0.3963029980659485
			],
			"max": [
				0.9758791923522949,
				0.7029115557670593
			]
		}
	],
	"bufferViews": [
		{
			"buffer": 0,
			"byteOffset": 0,
			"byteLength": 53640,
			"target": 34963
		},
		{
			"buffer": 0,
			"byteOffset": 53640,
			"byteLength": 145728,
			"target": 34962,
			"byteStride": 32
		},
		{
			"buffer": 1,
			"byteOffset": 0,
			"byteLength": 20088,
			"target": 34963
		},
		{
			"buffer": 1,
			"byteOffset": 20088,
			"byteLength": 56320,
			"target": 34962,
			"byteStride": 32
		}
	],
	"buffers": [
		{
			"uri": "data:application/octet-stream;base64,",
			"byteLength": 199368
		},
		{
			"uri": "data:application/octet-stream;base64,",
			"byteLength": 76408
		}
	],
	"materials": [
		{
			"pbrMetallicRoughness": {
				"baseColorFactor": [
					0.7999998927116394,
					0.8000000715255737,
					0.800000011920929,
					1.0
				],
				"metallicFactor": 0.0,
				"roughnessFactor": 0.0
			},
			"emissiveFactor": [
				0.0,
				0.0,
				0.0
			],
			"alphaMode": "OPAQUE",
			"doubleSided": false,
			"name": "RS OpenPBR"
		},
		{
			"pbrMetallicRoughness": {
				"baseColorFactor": [
					0.00151725672185421,
					0.10224172472953797,
					0.31398874521255495,
					1.0
				],
				"metallicFactor": 0.0,
				"roughnessFactor": 0.30000001192092898
			},
			"emissiveFactor": [
				0.0,
				0.0,
				0.0
			],
			"alphaMode": "OPAQUE",
			"doubleSided": false,
			"name": "estampa"
		}
	]
}